<mxfile host="Electron" modified="2024-07-08T21:47:05.395Z" agent="Mozilla/5.0 (Windows NT 10.0; Win64; x64) AppleWebKit/537.36 (KHTML, like Gecko) draw.io/24.5.1 Chrome/124.0.6367.207 Electron/30.0.6 Safari/537.36" etag="PnDyR6JBDZhEwEn2yXN0" version="24.5.1" type="device">
  <diagram name="Page-1" id="I3D8JdV4a1cfTuDe-Ou9">
    <mxGraphModel dx="3561" dy="2618" grid="1" gridSize="10" guides="1" tooltips="1" connect="1" arrows="1" fold="1" page="1" pageScale="1" pageWidth="850" pageHeight="1100" math="0" shadow="0">
      <root>
        <mxCell id="0" />
        <mxCell id="1" parent="0" />
        <mxCell id="AcMXBGsKMKyD5ggL8cvy-1" style="edgeStyle=orthogonalEdgeStyle;rounded=0;orthogonalLoop=1;jettySize=auto;html=1;exitX=1;exitY=0.25;exitDx=0;exitDy=0;exitPerimeter=0;startArrow=classic;startFill=1;" parent="1" source="AcMXBGsKMKyD5ggL8cvy-3" target="AcMXBGsKMKyD5ggL8cvy-9" edge="1">
          <mxGeometry relative="1" as="geometry">
            <Array as="points">
              <mxPoint x="167" y="399" />
            </Array>
            <mxPoint x="166.99999999999977" y="381" as="sourcePoint" />
          </mxGeometry>
        </mxCell>
        <mxCell id="AcMXBGsKMKyD5ggL8cvy-3" value="Create movie" style="sketch=0;points=[[0,0,0],[0.25,0,0],[0.5,0,0],[0.75,0,0],[1,0,0],[0,1,0],[0.25,1,0],[0.5,1,0],[0.75,1,0],[1,1,0],[0,0.25,0],[0,0.5,0],[0,0.75,0],[1,0.25,0],[1,0.5,0],[1,0.75,0]];outlineConnect=0;fontColor=#232F3E;fillColor=#ED7100;strokeColor=#ffffff;dashed=0;verticalLabelPosition=bottom;verticalAlign=top;align=center;html=1;fontSize=12;fontStyle=0;aspect=fixed;shape=mxgraph.aws4.resourceIcon;resIcon=mxgraph.aws4.lambda;" parent="1" vertex="1">
          <mxGeometry x="-425" y="381" width="72" height="72" as="geometry" />
        </mxCell>
        <mxCell id="AcMXBGsKMKyD5ggL8cvy-5" value="Download movie" style="sketch=0;points=[[0,0,0],[0.25,0,0],[0.5,0,0],[0.75,0,0],[1,0,0],[0,1,0],[0.25,1,0],[0.5,1,0],[0.75,1,0],[1,1,0],[0,0.25,0],[0,0.5,0],[0,0.75,0],[1,0.25,0],[1,0.5,0],[1,0.75,0]];outlineConnect=0;fontColor=#232F3E;fillColor=#ED7100;strokeColor=#ffffff;dashed=0;verticalLabelPosition=bottom;verticalAlign=top;align=center;html=1;fontSize=12;fontStyle=0;aspect=fixed;shape=mxgraph.aws4.resourceIcon;resIcon=mxgraph.aws4.lambda;" parent="1" vertex="1">
          <mxGeometry x="-423" y="30" width="70" height="70" as="geometry" />
        </mxCell>
        <mxCell id="AcMXBGsKMKyD5ggL8cvy-6" value="Delete movie" style="sketch=0;points=[[0,0,0],[0.25,0,0],[0.5,0,0],[0.75,0,0],[1,0,0],[0,1,0],[0.25,1,0],[0.5,1,0],[0.75,1,0],[1,1,0],[0,0.25,0],[0,0.5,0],[0,0.75,0],[1,0.25,0],[1,0.5,0],[1,0.75,0]];outlineConnect=0;fontColor=#232F3E;fillColor=#ED7100;strokeColor=#ffffff;dashed=0;verticalLabelPosition=bottom;verticalAlign=top;align=center;html=1;fontSize=12;fontStyle=0;aspect=fixed;shape=mxgraph.aws4.resourceIcon;resIcon=mxgraph.aws4.lambda;" parent="1" vertex="1">
          <mxGeometry x="-294" y="-456" width="70" height="70" as="geometry" />
        </mxCell>
        <mxCell id="AcMXBGsKMKyD5ggL8cvy-7" value="Search movie" style="sketch=0;points=[[0,0,0],[0.25,0,0],[0.5,0,0],[0.75,0,0],[1,0,0],[0,1,0],[0.25,1,0],[0.5,1,0],[0.75,1,0],[1,1,0],[0,0.25,0],[0,0.5,0],[0,0.75,0],[1,0.25,0],[1,0.5,0],[1,0.75,0]];outlineConnect=0;fontColor=#232F3E;fillColor=#ED7100;strokeColor=#ffffff;dashed=0;verticalLabelPosition=bottom;verticalAlign=top;align=center;html=1;fontSize=12;fontStyle=0;aspect=fixed;shape=mxgraph.aws4.resourceIcon;resIcon=mxgraph.aws4.lambda;" parent="1" vertex="1">
          <mxGeometry x="-380" y="897" width="70" height="70" as="geometry" />
        </mxCell>
        <mxCell id="AcMXBGsKMKyD5ggL8cvy-8" style="edgeStyle=orthogonalEdgeStyle;rounded=0;orthogonalLoop=1;jettySize=auto;html=1;entryX=1;entryY=0.5;entryDx=0;entryDy=0;entryPerimeter=0;exitX=0.25;exitY=0;exitDx=0;exitDy=0;exitPerimeter=0;" parent="1" source="AcMXBGsKMKyD5ggL8cvy-9" target="AcMXBGsKMKyD5ggL8cvy-64" edge="1">
          <mxGeometry relative="1" as="geometry">
            <Array as="points" />
          </mxGeometry>
        </mxCell>
        <mxCell id="AcMXBGsKMKyD5ggL8cvy-9" value="Movie S3 Bucket&lt;div&gt;&lt;br&gt;&lt;/div&gt;" style="sketch=0;points=[[0,0,0],[0.25,0,0],[0.5,0,0],[0.75,0,0],[1,0,0],[0,1,0],[0.25,1,0],[0.5,1,0],[0.75,1,0],[1,1,0],[0,0.25,0],[0,0.5,0],[0,0.75,0],[1,0.25,0],[1,0.5,0],[1,0.75,0]];outlineConnect=0;fontColor=#232F3E;fillColor=#7AA116;strokeColor=#ffffff;dashed=0;verticalLabelPosition=bottom;verticalAlign=top;align=center;html=1;fontSize=12;fontStyle=0;aspect=fixed;shape=mxgraph.aws4.resourceIcon;resIcon=mxgraph.aws4.s3;" parent="1" vertex="1">
          <mxGeometry x="133" y="48" width="70" height="70" as="geometry" />
        </mxCell>
        <mxCell id="AcMXBGsKMKyD5ggL8cvy-10" style="edgeStyle=orthogonalEdgeStyle;rounded=0;orthogonalLoop=1;jettySize=auto;html=1;startArrow=classic;startFill=1;" parent="1" source="AcMXBGsKMKyD5ggL8cvy-11" target="AcMXBGsKMKyD5ggL8cvy-17" edge="1">
          <mxGeometry relative="1" as="geometry" />
        </mxCell>
        <mxCell id="AcMXBGsKMKyD5ggL8cvy-11" value="&lt;div&gt;Cognito&lt;/div&gt;" style="sketch=0;points=[[0,0,0],[0.25,0,0],[0.5,0,0],[0.75,0,0],[1,0,0],[0,1,0],[0.25,1,0],[0.5,1,0],[0.75,1,0],[1,1,0],[0,0.25,0],[0,0.5,0],[0,0.75,0],[1,0.25,0],[1,0.5,0],[1,0.75,0]];outlineConnect=0;fontColor=#232F3E;fillColor=#DD344C;strokeColor=#ffffff;dashed=0;verticalLabelPosition=bottom;verticalAlign=top;align=center;html=1;fontSize=12;fontStyle=0;aspect=fixed;shape=mxgraph.aws4.resourceIcon;resIcon=mxgraph.aws4.cognito;" parent="1" vertex="1">
          <mxGeometry x="-610" y="252" width="78" height="78" as="geometry" />
        </mxCell>
        <mxCell id="AcMXBGsKMKyD5ggL8cvy-12" value="Movie Info DB" style="sketch=0;points=[[0,0,0],[0.25,0,0],[0.5,0,0],[0.75,0,0],[1,0,0],[0,1,0],[0.25,1,0],[0.5,1,0],[0.75,1,0],[1,1,0],[0,0.25,0],[0,0.5,0],[0,0.75,0],[1,0.25,0],[1,0.5,0],[1,0.75,0]];outlineConnect=0;fillColor=#b1ddf0;strokeColor=#10739e;dashed=0;verticalLabelPosition=bottom;verticalAlign=top;align=center;html=1;fontSize=12;fontStyle=0;aspect=fixed;shape=mxgraph.aws4.resourceIcon;resIcon=mxgraph.aws4.dynamodb;" parent="1" vertex="1">
          <mxGeometry x="-60" y="700" width="78" height="78" as="geometry" />
        </mxCell>
        <mxCell id="AcMXBGsKMKyD5ggL8cvy-13" style="edgeStyle=orthogonalEdgeStyle;rounded=0;orthogonalLoop=1;jettySize=auto;html=1;startArrow=classic;startFill=1;" parent="1" source="AcMXBGsKMKyD5ggL8cvy-15" target="AcMXBGsKMKyD5ggL8cvy-17" edge="1">
          <mxGeometry relative="1" as="geometry">
            <Array as="points">
              <mxPoint x="-530" y="610" />
            </Array>
          </mxGeometry>
        </mxCell>
        <mxCell id="AcMXBGsKMKyD5ggL8cvy-14" style="edgeStyle=orthogonalEdgeStyle;rounded=0;orthogonalLoop=1;jettySize=auto;html=1;opacity=90;startArrow=classic;startFill=1;" parent="1" source="AcMXBGsKMKyD5ggL8cvy-3" target="AcMXBGsKMKyD5ggL8cvy-15" edge="1">
          <mxGeometry relative="1" as="geometry">
            <mxPoint x="-320" y="360" as="sourcePoint" />
            <Array as="points">
              <mxPoint x="-460" y="417" />
            </Array>
          </mxGeometry>
        </mxCell>
        <mxCell id="AcMXBGsKMKyD5ggL8cvy-15" value="&lt;b&gt;&lt;font color=&quot;#000000&quot;&gt;API Gateway&lt;/font&gt;&lt;/b&gt;" style="sketch=0;points=[[0,0,0],[0.25,0,0],[0.5,0,0],[0.75,0,0],[1,0,0],[0,1,0],[0.25,1,0],[0.5,1,0],[0.75,1,0],[1,1,0],[0,0.25,0],[0,0.5,0],[0,0.75,0],[1,0.25,0],[1,0.5,0],[1,0.75,0]];outlineConnect=0;fontColor=#232F3E;fillColor=#E7157B;strokeColor=#ffffff;dashed=0;verticalLabelPosition=bottom;verticalAlign=top;align=center;html=1;fontSize=12;fontStyle=0;aspect=fixed;shape=mxgraph.aws4.resourceIcon;resIcon=mxgraph.aws4.api_gateway;" parent="1" vertex="1">
          <mxGeometry x="-532" y="650" width="78" height="78" as="geometry" />
        </mxCell>
        <mxCell id="AcMXBGsKMKyD5ggL8cvy-16" style="edgeStyle=orthogonalEdgeStyle;rounded=0;orthogonalLoop=1;jettySize=auto;html=1;startArrow=classic;startFill=1;" parent="1" source="AcMXBGsKMKyD5ggL8cvy-15" target="AcMXBGsKMKyD5ggL8cvy-11" edge="1">
          <mxGeometry relative="1" as="geometry">
            <Array as="points">
              <mxPoint x="-510" y="591" />
              <mxPoint x="-600" y="591" />
            </Array>
            <mxPoint x="-520" y="640" as="sourcePoint" />
          </mxGeometry>
        </mxCell>
        <mxCell id="AcMXBGsKMKyD5ggL8cvy-17" value="Users" style="outlineConnect=0;dashed=0;verticalLabelPosition=bottom;verticalAlign=top;align=center;html=1;shape=mxgraph.aws3.users;fillColor=#D2D3D3;gradientColor=none;" parent="1" vertex="1">
          <mxGeometry x="-750" y="560" width="66" height="63" as="geometry" />
        </mxCell>
        <mxCell id="AcMXBGsKMKyD5ggL8cvy-18" value="Subscribe" style="sketch=0;points=[[0,0,0],[0.25,0,0],[0.5,0,0],[0.75,0,0],[1,0,0],[0,1,0],[0.25,1,0],[0.5,1,0],[0.75,1,0],[1,1,0],[0,0.25,0],[0,0.5,0],[0,0.75,0],[1,0.25,0],[1,0.5,0],[1,0.75,0]];outlineConnect=0;fontColor=#232F3E;fillColor=#ED7100;strokeColor=#ffffff;dashed=0;verticalLabelPosition=bottom;verticalAlign=top;align=center;html=1;fontSize=12;fontStyle=0;aspect=fixed;shape=mxgraph.aws4.resourceIcon;resIcon=mxgraph.aws4.lambda;" parent="1" vertex="1">
          <mxGeometry x="-380" y="1020" width="70" height="70" as="geometry" />
        </mxCell>
        <mxCell id="9bkTHW58yHg_swuE8ucZ-21" style="edgeStyle=orthogonalEdgeStyle;rounded=0;orthogonalLoop=1;jettySize=auto;html=1;exitX=1;exitY=0.75;exitDx=0;exitDy=0;exitPerimeter=0;entryX=0.5;entryY=1;entryDx=0;entryDy=0;entryPerimeter=0;startArrow=classic;startFill=1;" edge="1" parent="1" source="AcMXBGsKMKyD5ggL8cvy-19" target="9bkTHW58yHg_swuE8ucZ-5">
          <mxGeometry relative="1" as="geometry">
            <mxPoint x="340" y="950" as="targetPoint" />
            <Array as="points">
              <mxPoint x="150" y="1173" />
            </Array>
          </mxGeometry>
        </mxCell>
        <mxCell id="AcMXBGsKMKyD5ggL8cvy-19" value="Unsubscribe" style="sketch=0;points=[[0,0,0],[0.25,0,0],[0.5,0,0],[0.75,0,0],[1,0,0],[0,1,0],[0.25,1,0],[0.5,1,0],[0.75,1,0],[1,1,0],[0,0.25,0],[0,0.5,0],[0,0.75,0],[1,0.25,0],[1,0.5,0],[1,0.75,0]];outlineConnect=0;fontColor=#232F3E;fillColor=#ED7100;strokeColor=#ffffff;dashed=0;verticalLabelPosition=bottom;verticalAlign=top;align=center;html=1;fontSize=12;fontStyle=0;aspect=fixed;shape=mxgraph.aws4.resourceIcon;resIcon=mxgraph.aws4.lambda;" parent="1" vertex="1">
          <mxGeometry x="-380" y="1120" width="70" height="70" as="geometry" />
        </mxCell>
        <mxCell id="AcMXBGsKMKyD5ggL8cvy-20" value="Get movie info" style="sketch=0;points=[[0,0,0],[0.25,0,0],[0.5,0,0],[0.75,0,0],[1,0,0],[0,1,0],[0.25,1,0],[0.5,1,0],[0.75,1,0],[1,1,0],[0,0.25,0],[0,0.5,0],[0,0.75,0],[1,0.25,0],[1,0.5,0],[1,0.75,0]];outlineConnect=0;fontColor=#232F3E;fillColor=#ED7100;strokeColor=#ffffff;dashed=0;verticalLabelPosition=bottom;verticalAlign=top;align=center;html=1;fontSize=12;fontStyle=0;aspect=fixed;shape=mxgraph.aws4.resourceIcon;resIcon=mxgraph.aws4.lambda;" parent="1" vertex="1">
          <mxGeometry x="-380" y="800" width="70" height="70" as="geometry" />
        </mxCell>
        <mxCell id="AcMXBGsKMKyD5ggL8cvy-21" value="Review" style="sketch=0;points=[[0,0,0],[0.25,0,0],[0.5,0,0],[0.75,0,0],[1,0,0],[0,1,0],[0.25,1,0],[0.5,1,0],[0.75,1,0],[1,1,0],[0,0.25,0],[0,0.5,0],[0,0.75,0],[1,0.25,0],[1,0.5,0],[1,0.75,0]];outlineConnect=0;fontColor=#232F3E;fillColor=#ED7100;strokeColor=#ffffff;dashed=0;verticalLabelPosition=bottom;verticalAlign=top;align=center;html=1;fontSize=12;fontStyle=0;aspect=fixed;shape=mxgraph.aws4.resourceIcon;resIcon=mxgraph.aws4.lambda;" parent="1" vertex="1">
          <mxGeometry x="-372" y="1390" width="70" height="70" as="geometry" />
        </mxCell>
        <mxCell id="AcMXBGsKMKyD5ggL8cvy-22" value="Get personalised feed&lt;div&gt;&lt;br&gt;&lt;/div&gt;" style="sketch=0;points=[[0,0,0],[0.25,0,0],[0.5,0,0],[0.75,0,0],[1,0,0],[0,1,0],[0.25,1,0],[0.5,1,0],[0.75,1,0],[1,1,0],[0,0.25,0],[0,0.5,0],[0,0.75,0],[1,0.25,0],[1,0.5,0],[1,0.75,0]];outlineConnect=0;fontColor=#232F3E;fillColor=#ED7100;strokeColor=#ffffff;dashed=0;verticalLabelPosition=bottom;verticalAlign=top;align=center;html=1;fontSize=12;fontStyle=0;aspect=fixed;shape=mxgraph.aws4.resourceIcon;resIcon=mxgraph.aws4.lambda;" parent="1" vertex="1">
          <mxGeometry x="-372" y="1720" width="70" height="70" as="geometry" />
        </mxCell>
        <mxCell id="AcMXBGsKMKyD5ggL8cvy-25" value="Subscription&lt;div&gt;&amp;nbsp;DB&lt;/div&gt;" style="sketch=0;points=[[0,0,0],[0.25,0,0],[0.5,0,0],[0.75,0,0],[1,0,0],[0,1,0],[0.25,1,0],[0.5,1,0],[0.75,1,0],[1,1,0],[0,0.25,0],[0,0.5,0],[0,0.75,0],[1,0.25,0],[1,0.5,0],[1,0.75,0]];outlineConnect=0;fillColor=#b1ddf0;strokeColor=#10739e;dashed=0;verticalLabelPosition=bottom;verticalAlign=top;align=center;html=1;fontSize=12;fontStyle=0;aspect=fixed;shape=mxgraph.aws4.resourceIcon;resIcon=mxgraph.aws4.dynamodb;" parent="1" vertex="1">
          <mxGeometry x="-56" y="1016" width="78" height="78" as="geometry" />
        </mxCell>
        <mxCell id="AcMXBGsKMKyD5ggL8cvy-26" value="Download History DB" style="sketch=0;points=[[0,0,0],[0.25,0,0],[0.5,0,0],[0.75,0,0],[1,0,0],[0,1,0],[0.25,1,0],[0.5,1,0],[0.75,1,0],[1,1,0],[0,0.25,0],[0,0.5,0],[0,0.75,0],[1,0.25,0],[1,0.5,0],[1,0.75,0]];outlineConnect=0;fillColor=#b1ddf0;strokeColor=#10739e;dashed=0;verticalLabelPosition=bottom;verticalAlign=top;align=center;html=1;fontSize=12;fontStyle=0;aspect=fixed;shape=mxgraph.aws4.resourceIcon;resIcon=mxgraph.aws4.dynamodb;" parent="1" vertex="1">
          <mxGeometry x="-70" y="-214" width="78" height="78" as="geometry" />
        </mxCell>
        <mxCell id="AcMXBGsKMKyD5ggL8cvy-27" value="Review DB" style="sketch=0;points=[[0,0,0],[0.25,0,0],[0.5,0,0],[0.75,0,0],[1,0,0],[0,1,0],[0.25,1,0],[0.5,1,0],[0.75,1,0],[1,1,0],[0,0.25,0],[0,0.5,0],[0,0.75,0],[1,0.25,0],[1,0.5,0],[1,0.75,0]];outlineConnect=0;fillColor=#b1ddf0;strokeColor=#10739e;dashed=0;verticalLabelPosition=bottom;verticalAlign=top;align=center;html=1;fontSize=12;fontStyle=0;aspect=fixed;shape=mxgraph.aws4.resourceIcon;resIcon=mxgraph.aws4.dynamodb;" parent="1" vertex="1">
          <mxGeometry x="-56" y="1416" width="78" height="78" as="geometry" />
        </mxCell>
        <mxCell id="AcMXBGsKMKyD5ggL8cvy-28" style="edgeStyle=orthogonalEdgeStyle;rounded=0;orthogonalLoop=1;jettySize=auto;html=1;entryX=0;entryY=0.5;entryDx=0;entryDy=0;entryPerimeter=0;startArrow=classic;startFill=1;" parent="1" source="AcMXBGsKMKyD5ggL8cvy-15" target="AcMXBGsKMKyD5ggL8cvy-20" edge="1">
          <mxGeometry relative="1" as="geometry">
            <Array as="points">
              <mxPoint x="-480" y="835" />
            </Array>
          </mxGeometry>
        </mxCell>
        <mxCell id="AcMXBGsKMKyD5ggL8cvy-29" style="edgeStyle=orthogonalEdgeStyle;rounded=0;orthogonalLoop=1;jettySize=auto;html=1;entryX=1;entryY=0.5;entryDx=0;entryDy=0;entryPerimeter=0;startArrow=classic;startFill=1;" parent="1" source="AcMXBGsKMKyD5ggL8cvy-12" target="AcMXBGsKMKyD5ggL8cvy-20" edge="1">
          <mxGeometry relative="1" as="geometry" />
        </mxCell>
        <mxCell id="AcMXBGsKMKyD5ggL8cvy-30" style="edgeStyle=orthogonalEdgeStyle;rounded=0;orthogonalLoop=1;jettySize=auto;html=1;entryX=0;entryY=0.5;entryDx=0;entryDy=0;entryPerimeter=0;startArrow=classic;startFill=1;" parent="1" source="AcMXBGsKMKyD5ggL8cvy-15" target="AcMXBGsKMKyD5ggL8cvy-19" edge="1">
          <mxGeometry relative="1" as="geometry">
            <Array as="points">
              <mxPoint x="-510" y="1155" />
            </Array>
          </mxGeometry>
        </mxCell>
        <mxCell id="AcMXBGsKMKyD5ggL8cvy-31" style="edgeStyle=orthogonalEdgeStyle;rounded=0;orthogonalLoop=1;jettySize=auto;html=1;startArrow=classic;startFill=1;entryX=0;entryY=0.75;entryDx=0;entryDy=0;entryPerimeter=0;" parent="1" source="AcMXBGsKMKyD5ggL8cvy-19" target="AcMXBGsKMKyD5ggL8cvy-25" edge="1">
          <mxGeometry relative="1" as="geometry">
            <mxPoint x="-70" y="1335" as="targetPoint" />
            <Array as="points">
              <mxPoint x="-170" y="1155" />
              <mxPoint x="-170" y="1075" />
              <mxPoint x="-56" y="1075" />
            </Array>
          </mxGeometry>
        </mxCell>
        <mxCell id="AcMXBGsKMKyD5ggL8cvy-32" style="edgeStyle=orthogonalEdgeStyle;rounded=0;orthogonalLoop=1;jettySize=auto;html=1;entryX=0;entryY=0.5;entryDx=0;entryDy=0;entryPerimeter=0;startArrow=classic;startFill=1;" parent="1" source="AcMXBGsKMKyD5ggL8cvy-15" target="AcMXBGsKMKyD5ggL8cvy-18" edge="1">
          <mxGeometry relative="1" as="geometry">
            <Array as="points">
              <mxPoint x="-500" y="1055" />
            </Array>
          </mxGeometry>
        </mxCell>
        <mxCell id="AcMXBGsKMKyD5ggL8cvy-34" style="edgeStyle=orthogonalEdgeStyle;rounded=0;orthogonalLoop=1;jettySize=auto;html=1;" parent="1" source="AcMXBGsKMKyD5ggL8cvy-18" target="AcMXBGsKMKyD5ggL8cvy-25" edge="1">
          <mxGeometry relative="1" as="geometry">
            <Array as="points">
              <mxPoint x="-180" y="1055" />
              <mxPoint x="-180" y="1055" />
            </Array>
            <mxPoint x="-60" y="1055" as="targetPoint" />
          </mxGeometry>
        </mxCell>
        <mxCell id="AcMXBGsKMKyD5ggL8cvy-35" style="edgeStyle=orthogonalEdgeStyle;rounded=0;orthogonalLoop=1;jettySize=auto;html=1;entryX=0;entryY=0.5;entryDx=0;entryDy=0;entryPerimeter=0;startArrow=classic;startFill=1;" parent="1" source="AcMXBGsKMKyD5ggL8cvy-15" target="9bkTHW58yHg_swuE8ucZ-27" edge="1">
          <mxGeometry relative="1" as="geometry">
            <Array as="points">
              <mxPoint x="-520" y="1515" />
            </Array>
          </mxGeometry>
        </mxCell>
        <mxCell id="AcMXBGsKMKyD5ggL8cvy-36" style="edgeStyle=orthogonalEdgeStyle;rounded=0;orthogonalLoop=1;jettySize=auto;html=1;entryX=0;entryY=0.25;entryDx=0;entryDy=0;entryPerimeter=0;startArrow=classic;startFill=1;" parent="1" source="AcMXBGsKMKyD5ggL8cvy-21" target="AcMXBGsKMKyD5ggL8cvy-27" edge="1">
          <mxGeometry relative="1" as="geometry" />
        </mxCell>
        <mxCell id="AcMXBGsKMKyD5ggL8cvy-37" style="edgeStyle=orthogonalEdgeStyle;rounded=0;orthogonalLoop=1;jettySize=auto;html=1;entryX=0;entryY=0.5;entryDx=0;entryDy=0;entryPerimeter=0;startArrow=classic;startFill=1;" parent="1" source="AcMXBGsKMKyD5ggL8cvy-15" target="AcMXBGsKMKyD5ggL8cvy-7" edge="1">
          <mxGeometry relative="1" as="geometry">
            <Array as="points">
              <mxPoint x="-490" y="932" />
            </Array>
          </mxGeometry>
        </mxCell>
        <mxCell id="AcMXBGsKMKyD5ggL8cvy-38" style="edgeStyle=orthogonalEdgeStyle;rounded=0;orthogonalLoop=1;jettySize=auto;html=1;entryX=0;entryY=0.75;entryDx=0;entryDy=0;entryPerimeter=0;startArrow=classic;startFill=1;" parent="1" source="AcMXBGsKMKyD5ggL8cvy-7" target="AcMXBGsKMKyD5ggL8cvy-12" edge="1">
          <mxGeometry relative="1" as="geometry">
            <Array as="points">
              <mxPoint x="-170" y="932" />
              <mxPoint x="-170" y="759" />
            </Array>
          </mxGeometry>
        </mxCell>
        <mxCell id="AcMXBGsKMKyD5ggL8cvy-39" value="Update movie" style="sketch=0;points=[[0,0,0],[0.25,0,0],[0.5,0,0],[0.75,0,0],[1,0,0],[0,1,0],[0.25,1,0],[0.5,1,0],[0.75,1,0],[1,1,0],[0,0.25,0],[0,0.5,0],[0,0.75,0],[1,0.25,0],[1,0.5,0],[1,0.75,0]];outlineConnect=0;fontColor=#232F3E;fillColor=#ED7100;strokeColor=#ffffff;dashed=0;verticalLabelPosition=bottom;verticalAlign=top;align=center;html=1;fontSize=12;fontStyle=0;aspect=fixed;shape=mxgraph.aws4.resourceIcon;resIcon=mxgraph.aws4.lambda;" parent="1" vertex="1">
          <mxGeometry x="-423" y="140" width="70" height="70" as="geometry" />
        </mxCell>
        <mxCell id="AcMXBGsKMKyD5ggL8cvy-40" style="edgeStyle=orthogonalEdgeStyle;rounded=0;orthogonalLoop=1;jettySize=auto;html=1;entryX=0;entryY=0.5;entryDx=0;entryDy=0;entryPerimeter=0;startArrow=classic;startFill=1;" parent="1" source="AcMXBGsKMKyD5ggL8cvy-15" target="AcMXBGsKMKyD5ggL8cvy-39" edge="1">
          <mxGeometry relative="1" as="geometry">
            <Array as="points">
              <mxPoint x="-470" y="175" />
            </Array>
          </mxGeometry>
        </mxCell>
        <mxCell id="AcMXBGsKMKyD5ggL8cvy-42" style="edgeStyle=orthogonalEdgeStyle;rounded=0;orthogonalLoop=1;jettySize=auto;html=1;entryX=0;entryY=0;entryDx=0;entryDy=0;entryPerimeter=0;startArrow=classic;startFill=1;" parent="1" source="AcMXBGsKMKyD5ggL8cvy-39" target="AcMXBGsKMKyD5ggL8cvy-12" edge="1">
          <mxGeometry relative="1" as="geometry">
            <Array as="points">
              <mxPoint x="-200" y="190" />
              <mxPoint x="-200" y="700" />
            </Array>
          </mxGeometry>
        </mxCell>
        <mxCell id="AcMXBGsKMKyD5ggL8cvy-45" style="edgeStyle=orthogonalEdgeStyle;rounded=0;orthogonalLoop=1;jettySize=auto;html=1;exitX=1;exitY=0.75;exitDx=0;exitDy=0;exitPerimeter=0;entryX=0.5;entryY=0;entryDx=0;entryDy=0;entryPerimeter=0;startArrow=classic;startFill=1;" parent="1" source="AcMXBGsKMKyD5ggL8cvy-3" target="AcMXBGsKMKyD5ggL8cvy-12" edge="1">
          <mxGeometry relative="1" as="geometry">
            <mxPoint x="-21" y="623" as="sourcePoint" />
          </mxGeometry>
        </mxCell>
        <mxCell id="AcMXBGsKMKyD5ggL8cvy-47" style="edgeStyle=orthogonalEdgeStyle;rounded=0;orthogonalLoop=1;jettySize=auto;html=1;entryX=0;entryY=0.5;entryDx=0;entryDy=0;entryPerimeter=0;startArrow=classic;startFill=1;" parent="1" target="AcMXBGsKMKyD5ggL8cvy-5" edge="1">
          <mxGeometry relative="1" as="geometry">
            <Array as="points">
              <mxPoint x="-480" y="65" />
            </Array>
            <mxPoint x="-480" y="650" as="sourcePoint" />
          </mxGeometry>
        </mxCell>
        <mxCell id="AcMXBGsKMKyD5ggL8cvy-50" style="edgeStyle=orthogonalEdgeStyle;rounded=0;orthogonalLoop=1;jettySize=auto;html=1;startArrow=classic;startFill=1;" parent="1" target="AcMXBGsKMKyD5ggL8cvy-9" edge="1">
          <mxGeometry relative="1" as="geometry">
            <Array as="points">
              <mxPoint x="-224" y="-400" />
              <mxPoint x="166" y="-400" />
            </Array>
            <mxPoint x="-224" y="-400" as="sourcePoint" />
          </mxGeometry>
        </mxCell>
        <mxCell id="AcMXBGsKMKyD5ggL8cvy-51" style="edgeStyle=orthogonalEdgeStyle;rounded=0;orthogonalLoop=1;jettySize=auto;html=1;entryX=1;entryY=0.5;entryDx=0;entryDy=0;entryPerimeter=0;startArrow=classic;startFill=1;exitX=1;exitY=0.5;exitDx=0;exitDy=0;exitPerimeter=0;" parent="1" source="AcMXBGsKMKyD5ggL8cvy-6" target="AcMXBGsKMKyD5ggL8cvy-12" edge="1">
          <mxGeometry relative="1" as="geometry">
            <Array as="points">
              <mxPoint x="430" y="-421" />
              <mxPoint x="430" y="739" />
            </Array>
            <mxPoint x="8" y="-409.9999999999998" as="sourcePoint" />
          </mxGeometry>
        </mxCell>
        <mxCell id="AcMXBGsKMKyD5ggL8cvy-52" style="edgeStyle=orthogonalEdgeStyle;rounded=0;orthogonalLoop=1;jettySize=auto;html=1;entryX=1;entryY=0.5;entryDx=0;entryDy=0;entryPerimeter=0;startArrow=classic;startFill=1;exitX=1;exitY=0.25;exitDx=0;exitDy=0;exitPerimeter=0;" parent="1" source="AcMXBGsKMKyD5ggL8cvy-6" target="AcMXBGsKMKyD5ggL8cvy-27" edge="1">
          <mxGeometry relative="1" as="geometry">
            <Array as="points">
              <mxPoint x="390" y="-439" />
              <mxPoint x="1130" y="-439" />
              <mxPoint x="1130" y="1259" />
            </Array>
            <mxPoint x="8" y="-420.9473684210527" as="sourcePoint" />
          </mxGeometry>
        </mxCell>
        <mxCell id="AcMXBGsKMKyD5ggL8cvy-53" style="edgeStyle=orthogonalEdgeStyle;rounded=0;orthogonalLoop=1;jettySize=auto;html=1;entryX=0;entryY=0.5;entryDx=0;entryDy=0;entryPerimeter=0;startArrow=classic;startFill=1;exitX=0.5;exitY=0;exitDx=0;exitDy=0;exitPerimeter=0;" parent="1" source="AcMXBGsKMKyD5ggL8cvy-15" target="9bkTHW58yHg_swuE8ucZ-2" edge="1">
          <mxGeometry relative="1" as="geometry">
            <Array as="points">
              <mxPoint x="-493" y="-75" />
            </Array>
          </mxGeometry>
        </mxCell>
        <mxCell id="AcMXBGsKMKyD5ggL8cvy-54" style="edgeStyle=orthogonalEdgeStyle;rounded=0;orthogonalLoop=1;jettySize=auto;html=1;entryX=0.5;entryY=0;entryDx=0;entryDy=0;entryPerimeter=0;startArrow=classic;startFill=1;exitX=1;exitY=1;exitDx=0;exitDy=0;exitPerimeter=0;" parent="1" source="AcMXBGsKMKyD5ggL8cvy-6" target="AcMXBGsKMKyD5ggL8cvy-26" edge="1">
          <mxGeometry relative="1" as="geometry">
            <mxPoint x="-31" y="-382" as="sourcePoint" />
            <Array as="points">
              <mxPoint x="-31" y="-386" />
            </Array>
          </mxGeometry>
        </mxCell>
        <mxCell id="AcMXBGsKMKyD5ggL8cvy-55" style="edgeStyle=orthogonalEdgeStyle;rounded=0;orthogonalLoop=1;jettySize=auto;html=1;entryX=0;entryY=0.5;entryDx=0;entryDy=0;entryPerimeter=0;startArrow=classic;startFill=1;" parent="1" source="AcMXBGsKMKyD5ggL8cvy-15" target="AcMXBGsKMKyD5ggL8cvy-22" edge="1">
          <mxGeometry relative="1" as="geometry">
            <Array as="points">
              <mxPoint x="-530" y="1755" />
            </Array>
          </mxGeometry>
        </mxCell>
        <mxCell id="AcMXBGsKMKyD5ggL8cvy-56" style="edgeStyle=orthogonalEdgeStyle;rounded=0;orthogonalLoop=1;jettySize=auto;html=1;exitX=1;exitY=0.5;exitDx=0;exitDy=0;exitPerimeter=0;startArrow=classic;startFill=1;" parent="1" source="AcMXBGsKMKyD5ggL8cvy-57" target="AcMXBGsKMKyD5ggL8cvy-75" edge="1">
          <mxGeometry relative="1" as="geometry" />
        </mxCell>
        <mxCell id="AcMXBGsKMKyD5ggL8cvy-57" value="Notify" style="sketch=0;points=[[0,0,0],[0.25,0,0],[0.5,0,0],[0.75,0,0],[1,0,0],[0,1,0],[0.25,1,0],[0.5,1,0],[0.75,1,0],[1,1,0],[0,0.25,0],[0,0.5,0],[0,0.75,0],[1,0.25,0],[1,0.5,0],[1,0.75,0]];outlineConnect=0;fontColor=#232F3E;fillColor=#ED7100;strokeColor=#ffffff;dashed=0;verticalLabelPosition=bottom;verticalAlign=top;align=center;html=1;fontSize=12;fontStyle=0;aspect=fixed;shape=mxgraph.aws4.resourceIcon;resIcon=mxgraph.aws4.lambda;" parent="1" vertex="1">
          <mxGeometry x="560" y="230" width="70" height="70" as="geometry" />
        </mxCell>
        <mxCell id="AcMXBGsKMKyD5ggL8cvy-60" style="edgeStyle=orthogonalEdgeStyle;rounded=0;orthogonalLoop=1;jettySize=auto;html=1;entryX=0;entryY=0.25;entryDx=0;entryDy=0;entryPerimeter=0;startArrow=classic;startFill=1;" parent="1" source="AcMXBGsKMKyD5ggL8cvy-5" target="AcMXBGsKMKyD5ggL8cvy-9" edge="1">
          <mxGeometry relative="1" as="geometry">
            <mxPoint x="-290" y="5" as="targetPoint" />
          </mxGeometry>
        </mxCell>
        <mxCell id="AcMXBGsKMKyD5ggL8cvy-64" value="Transcode" style="sketch=0;points=[[0,0,0],[0.25,0,0],[0.5,0,0],[0.75,0,0],[1,0,0],[0,1,0],[0.25,1,0],[0.5,1,0],[0.75,1,0],[1,1,0],[0,0.25,0],[0,0.5,0],[0,0.75,0],[1,0.25,0],[1,0.5,0],[1,0.75,0]];outlineConnect=0;fontColor=#232F3E;gradientColor=#FF4F8B;gradientDirection=north;fillColor=#BC1356;strokeColor=#ffffff;dashed=0;verticalLabelPosition=bottom;verticalAlign=top;align=center;html=1;fontSize=12;fontStyle=0;aspect=fixed;shape=mxgraph.aws4.resourceIcon;resIcon=mxgraph.aws4.step_functions;" parent="1" vertex="1">
          <mxGeometry x="-70" y="-114" width="78" height="78" as="geometry" />
        </mxCell>
        <mxCell id="AcMXBGsKMKyD5ggL8cvy-65" value="Transcoder" style="points=[[0,0],[0.25,0],[0.5,0],[0.75,0],[1,0],[1,0.25],[1,0.5],[1,0.75],[1,1],[0.75,1],[0.5,1],[0.25,1],[0,1],[0,0.75],[0,0.5],[0,0.25]];outlineConnect=0;gradientColor=none;html=1;whiteSpace=wrap;fontSize=12;fontStyle=0;container=1;pointerEvents=0;collapsible=0;recursiveResize=0;shape=mxgraph.aws4.group;grIcon=mxgraph.aws4.group_aws_step_functions_workflow;strokeColor=#CD2264;fillColor=none;verticalAlign=top;align=left;spacingLeft=30;fontColor=#CD2264;dashed=0;" parent="1" vertex="1">
          <mxGeometry x="670" y="-970" width="500" height="410" as="geometry" />
        </mxCell>
        <mxCell id="AcMXBGsKMKyD5ggL8cvy-66" value="&lt;div&gt;360p&lt;/div&gt;" style="sketch=0;points=[[0,0,0],[0.25,0,0],[0.5,0,0],[0.75,0,0],[1,0,0],[0,1,0],[0.25,1,0],[0.5,1,0],[0.75,1,0],[1,1,0],[0,0.25,0],[0,0.5,0],[0,0.75,0],[1,0.25,0],[1,0.5,0],[1,0.75,0]];outlineConnect=0;fontColor=#232F3E;fillColor=#ED7100;strokeColor=#ffffff;dashed=0;verticalLabelPosition=bottom;verticalAlign=top;align=center;html=1;fontSize=12;fontStyle=0;aspect=fixed;shape=mxgraph.aws4.resourceIcon;resIcon=mxgraph.aws4.lambda;" parent="AcMXBGsKMKyD5ggL8cvy-65" vertex="1">
          <mxGeometry x="160" y="50" width="70" height="70" as="geometry" />
        </mxCell>
        <mxCell id="AcMXBGsKMKyD5ggL8cvy-67" value="&lt;div&gt;480p&lt;/div&gt;" style="sketch=0;points=[[0,0,0],[0.25,0,0],[0.5,0,0],[0.75,0,0],[1,0,0],[0,1,0],[0.25,1,0],[0.5,1,0],[0.75,1,0],[1,1,0],[0,0.25,0],[0,0.5,0],[0,0.75,0],[1,0.25,0],[1,0.5,0],[1,0.75,0]];outlineConnect=0;fontColor=#232F3E;fillColor=#ED7100;strokeColor=#ffffff;dashed=0;verticalLabelPosition=bottom;verticalAlign=top;align=center;html=1;fontSize=12;fontStyle=0;aspect=fixed;shape=mxgraph.aws4.resourceIcon;resIcon=mxgraph.aws4.lambda;" parent="AcMXBGsKMKyD5ggL8cvy-65" vertex="1">
          <mxGeometry x="160" y="160" width="70" height="70" as="geometry" />
        </mxCell>
        <mxCell id="AcMXBGsKMKyD5ggL8cvy-68" value="&lt;div&gt;720p&lt;/div&gt;" style="sketch=0;points=[[0,0,0],[0.25,0,0],[0.5,0,0],[0.75,0,0],[1,0,0],[0,1,0],[0.25,1,0],[0.5,1,0],[0.75,1,0],[1,1,0],[0,0.25,0],[0,0.5,0],[0,0.75,0],[1,0.25,0],[1,0.5,0],[1,0.75,0]];outlineConnect=0;fontColor=#232F3E;fillColor=#ED7100;strokeColor=#ffffff;dashed=0;verticalLabelPosition=bottom;verticalAlign=top;align=center;html=1;fontSize=12;fontStyle=0;aspect=fixed;shape=mxgraph.aws4.resourceIcon;resIcon=mxgraph.aws4.lambda;" parent="AcMXBGsKMKyD5ggL8cvy-65" vertex="1">
          <mxGeometry x="160" y="270" width="70" height="70" as="geometry" />
        </mxCell>
        <mxCell id="AcMXBGsKMKyD5ggL8cvy-69" value="Movie S3 Bucket&lt;div&gt;&lt;br&gt;&lt;/div&gt;" style="sketch=0;points=[[0,0,0],[0.25,0,0],[0.5,0,0],[0.75,0,0],[1,0,0],[0,1,0],[0.25,1,0],[0.5,1,0],[0.75,1,0],[1,1,0],[0,0.25,0],[0,0.5,0],[0,0.75,0],[1,0.25,0],[1,0.5,0],[1,0.75,0]];outlineConnect=0;fontColor=#232F3E;fillColor=#7AA116;strokeColor=#ffffff;dashed=0;verticalLabelPosition=bottom;verticalAlign=top;align=center;html=1;fontSize=12;fontStyle=0;aspect=fixed;shape=mxgraph.aws4.resourceIcon;resIcon=mxgraph.aws4.s3;" parent="AcMXBGsKMKyD5ggL8cvy-65" vertex="1">
          <mxGeometry x="350" y="165" width="70" height="70" as="geometry" />
        </mxCell>
        <mxCell id="AcMXBGsKMKyD5ggL8cvy-70" style="edgeStyle=orthogonalEdgeStyle;rounded=0;orthogonalLoop=1;jettySize=auto;html=1;exitX=1;exitY=0.5;exitDx=0;exitDy=0;" parent="AcMXBGsKMKyD5ggL8cvy-65" source="AcMXBGsKMKyD5ggL8cvy-71" target="AcMXBGsKMKyD5ggL8cvy-69" edge="1">
          <mxGeometry relative="1" as="geometry" />
        </mxCell>
        <mxCell id="AcMXBGsKMKyD5ggL8cvy-71" value="Parallel" style="fillColor=none;strokeColor=#5A6C86;dashed=1;verticalAlign=top;fontStyle=0;fontColor=#5A6C86;whiteSpace=wrap;html=1;" parent="AcMXBGsKMKyD5ggL8cvy-65" vertex="1">
          <mxGeometry x="130" y="17.5" width="130" height="365" as="geometry" />
        </mxCell>
        <mxCell id="AcMXBGsKMKyD5ggL8cvy-72" style="edgeStyle=orthogonalEdgeStyle;rounded=0;orthogonalLoop=1;jettySize=auto;html=1;" parent="1" source="AcMXBGsKMKyD5ggL8cvy-75" target="AcMXBGsKMKyD5ggL8cvy-91" edge="1">
          <mxGeometry relative="1" as="geometry" />
        </mxCell>
        <mxCell id="AcMXBGsKMKyD5ggL8cvy-73" style="edgeStyle=orthogonalEdgeStyle;rounded=0;orthogonalLoop=1;jettySize=auto;html=1;" parent="1" source="AcMXBGsKMKyD5ggL8cvy-75" target="AcMXBGsKMKyD5ggL8cvy-94" edge="1">
          <mxGeometry relative="1" as="geometry">
            <Array as="points">
              <mxPoint x="839" y="380" />
              <mxPoint x="679" y="380" />
            </Array>
          </mxGeometry>
        </mxCell>
        <mxCell id="AcMXBGsKMKyD5ggL8cvy-74" style="edgeStyle=orthogonalEdgeStyle;rounded=0;orthogonalLoop=1;jettySize=auto;html=1;" parent="1" source="AcMXBGsKMKyD5ggL8cvy-75" target="AcMXBGsKMKyD5ggL8cvy-95" edge="1">
          <mxGeometry relative="1" as="geometry">
            <Array as="points">
              <mxPoint x="839" y="380" />
              <mxPoint x="979" y="380" />
            </Array>
          </mxGeometry>
        </mxCell>
        <mxCell id="AcMXBGsKMKyD5ggL8cvy-75" value="Subscription notifications" style="sketch=0;points=[[0,0,0],[0.25,0,0],[0.5,0,0],[0.75,0,0],[1,0,0],[0,1,0],[0.25,1,0],[0.5,1,0],[0.75,1,0],[1,1,0],[0,0.25,0],[0,0.5,0],[0,0.75,0],[1,0.25,0],[1,0.5,0],[1,0.75,0]];outlineConnect=0;fontColor=#232F3E;fillColor=#E7157B;strokeColor=#ffffff;dashed=0;verticalLabelPosition=bottom;verticalAlign=top;align=center;html=1;fontSize=12;fontStyle=0;aspect=fixed;shape=mxgraph.aws4.resourceIcon;resIcon=mxgraph.aws4.sns;" parent="1" vertex="1">
          <mxGeometry x="800" y="226" width="78" height="78" as="geometry" />
        </mxCell>
        <mxCell id="AcMXBGsKMKyD5ggL8cvy-76" style="edgeStyle=orthogonalEdgeStyle;rounded=0;orthogonalLoop=1;jettySize=auto;html=1;exitX=1;exitY=0.75;exitDx=0;exitDy=0;exitPerimeter=0;entryX=0;entryY=0.5;entryDx=0;entryDy=0;entryPerimeter=0;startArrow=classic;startFill=1;" parent="1" source="AcMXBGsKMKyD5ggL8cvy-12" target="AcMXBGsKMKyD5ggL8cvy-57" edge="1">
          <mxGeometry relative="1" as="geometry">
            <Array as="points">
              <mxPoint x="490" y="759" />
              <mxPoint x="490" y="265" />
            </Array>
          </mxGeometry>
        </mxCell>
        <mxCell id="AcMXBGsKMKyD5ggL8cvy-77" style="edgeStyle=orthogonalEdgeStyle;rounded=0;orthogonalLoop=1;jettySize=auto;html=1;exitX=0.5;exitY=1;exitDx=0;exitDy=0;exitPerimeter=0;" parent="1" source="AcMXBGsKMKyD5ggL8cvy-78" target="AcMXBGsKMKyD5ggL8cvy-101" edge="1">
          <mxGeometry relative="1" as="geometry" />
        </mxCell>
        <mxCell id="AcMXBGsKMKyD5ggL8cvy-78" value="SQS" style="sketch=0;points=[[0,0,0],[0.25,0,0],[0.5,0,0],[0.75,0,0],[1,0,0],[0,1,0],[0.25,1,0],[0.5,1,0],[0.75,1,0],[1,1,0],[0,0.25,0],[0,0.5,0],[0,0.75,0],[1,0.25,0],[1,0.5,0],[1,0.75,0]];outlineConnect=0;fontColor=#232F3E;fillColor=#E7157B;strokeColor=#ffffff;dashed=0;verticalLabelPosition=bottom;verticalAlign=top;align=center;html=1;fontSize=12;fontStyle=0;aspect=fixed;shape=mxgraph.aws4.resourceIcon;resIcon=mxgraph.aws4.sqs;" parent="1" vertex="1">
          <mxGeometry x="800" y="610" width="78" height="78" as="geometry" />
        </mxCell>
        <mxCell id="AcMXBGsKMKyD5ggL8cvy-79" style="edgeStyle=orthogonalEdgeStyle;rounded=0;orthogonalLoop=1;jettySize=auto;html=1;exitX=1;exitY=0.5;exitDx=0;exitDy=0;exitPerimeter=0;entryX=0.5;entryY=1;entryDx=0;entryDy=0;entryPerimeter=0;startArrow=classic;startFill=1;" parent="1" source="AcMXBGsKMKyD5ggL8cvy-25" target="AcMXBGsKMKyD5ggL8cvy-57" edge="1">
          <mxGeometry relative="1" as="geometry">
            <Array as="points">
              <mxPoint x="595" y="1055" />
            </Array>
          </mxGeometry>
        </mxCell>
        <mxCell id="AcMXBGsKMKyD5ggL8cvy-80" style="edgeStyle=orthogonalEdgeStyle;rounded=0;orthogonalLoop=1;jettySize=auto;html=1;exitX=0.75;exitY=0;exitDx=0;exitDy=0;exitPerimeter=0;entryX=0.5;entryY=0;entryDx=0;entryDy=0;entryPerimeter=0;" parent="1" source="AcMXBGsKMKyD5ggL8cvy-11" target="AcMXBGsKMKyD5ggL8cvy-57" edge="1">
          <mxGeometry relative="1" as="geometry">
            <Array as="points">
              <mxPoint x="-551" y="-550" />
              <mxPoint x="595" y="-550" />
            </Array>
          </mxGeometry>
        </mxCell>
        <mxCell id="AcMXBGsKMKyD5ggL8cvy-90" value="" style="edgeStyle=orthogonalEdgeStyle;rounded=0;orthogonalLoop=1;jettySize=auto;html=1;" parent="1" source="AcMXBGsKMKyD5ggL8cvy-91" target="AcMXBGsKMKyD5ggL8cvy-78" edge="1">
          <mxGeometry relative="1" as="geometry" />
        </mxCell>
        <mxCell id="AcMXBGsKMKyD5ggL8cvy-91" value="genre&amp;nbsp;" style="sketch=0;outlineConnect=0;fontColor=#232F3E;gradientColor=none;fillColor=#E7157B;strokeColor=none;dashed=0;verticalLabelPosition=bottom;verticalAlign=top;align=center;html=1;fontSize=12;fontStyle=0;aspect=fixed;pointerEvents=1;shape=mxgraph.aws4.topic;" parent="1" vertex="1">
          <mxGeometry x="800" y="430" width="78" height="67" as="geometry" />
        </mxCell>
        <mxCell id="AcMXBGsKMKyD5ggL8cvy-92" value="Queue" style="sketch=0;outlineConnect=0;fontColor=#232F3E;gradientColor=none;fillColor=#E7157B;strokeColor=none;dashed=0;verticalLabelPosition=bottom;verticalAlign=top;align=center;html=1;fontSize=12;fontStyle=0;aspect=fixed;pointerEvents=1;shape=mxgraph.aws4.queue;" parent="1" vertex="1">
          <mxGeometry x="640" y="850" width="78" height="47" as="geometry" />
        </mxCell>
        <mxCell id="AcMXBGsKMKyD5ggL8cvy-93" style="edgeStyle=orthogonalEdgeStyle;rounded=0;orthogonalLoop=1;jettySize=auto;html=1;entryX=0.5;entryY=0;entryDx=0;entryDy=0;entryPerimeter=0;" parent="1" source="AcMXBGsKMKyD5ggL8cvy-91" target="AcMXBGsKMKyD5ggL8cvy-78" edge="1">
          <mxGeometry relative="1" as="geometry" />
        </mxCell>
        <mxCell id="AcMXBGsKMKyD5ggL8cvy-94" value="producer" style="sketch=0;outlineConnect=0;fontColor=#232F3E;gradientColor=none;fillColor=#E7157B;strokeColor=none;dashed=0;verticalLabelPosition=bottom;verticalAlign=top;align=center;html=1;fontSize=12;fontStyle=0;aspect=fixed;pointerEvents=1;shape=mxgraph.aws4.topic;" parent="1" vertex="1">
          <mxGeometry x="640" y="430" width="78" height="67" as="geometry" />
        </mxCell>
        <mxCell id="AcMXBGsKMKyD5ggL8cvy-95" value="actor" style="sketch=0;outlineConnect=0;fontColor=#232F3E;gradientColor=none;fillColor=#E7157B;strokeColor=none;dashed=0;verticalLabelPosition=bottom;verticalAlign=top;align=center;html=1;fontSize=12;fontStyle=0;aspect=fixed;pointerEvents=1;shape=mxgraph.aws4.topic;" parent="1" vertex="1">
          <mxGeometry x="950" y="430" width="78" height="67" as="geometry" />
        </mxCell>
        <mxCell id="AcMXBGsKMKyD5ggL8cvy-96" value="" style="edgeStyle=orthogonalEdgeStyle;rounded=0;orthogonalLoop=1;jettySize=auto;html=1;" parent="1" source="AcMXBGsKMKyD5ggL8cvy-95" target="AcMXBGsKMKyD5ggL8cvy-100" edge="1">
          <mxGeometry relative="1" as="geometry" />
        </mxCell>
        <mxCell id="AcMXBGsKMKyD5ggL8cvy-97" style="edgeStyle=orthogonalEdgeStyle;rounded=0;orthogonalLoop=1;jettySize=auto;html=1;exitX=0.5;exitY=1;exitDx=0;exitDy=0;exitPerimeter=0;" parent="1" source="AcMXBGsKMKyD5ggL8cvy-98" target="AcMXBGsKMKyD5ggL8cvy-92" edge="1">
          <mxGeometry relative="1" as="geometry" />
        </mxCell>
        <mxCell id="AcMXBGsKMKyD5ggL8cvy-98" value="SQS" style="sketch=0;points=[[0,0,0],[0.25,0,0],[0.5,0,0],[0.75,0,0],[1,0,0],[0,1,0],[0.25,1,0],[0.5,1,0],[0.75,1,0],[1,1,0],[0,0.25,0],[0,0.5,0],[0,0.75,0],[1,0.25,0],[1,0.5,0],[1,0.75,0]];outlineConnect=0;fontColor=#232F3E;fillColor=#E7157B;strokeColor=#ffffff;dashed=0;verticalLabelPosition=bottom;verticalAlign=top;align=center;html=1;fontSize=12;fontStyle=0;aspect=fixed;shape=mxgraph.aws4.resourceIcon;resIcon=mxgraph.aws4.sqs;" parent="1" vertex="1">
          <mxGeometry x="640" y="610" width="78" height="78" as="geometry" />
        </mxCell>
        <mxCell id="AcMXBGsKMKyD5ggL8cvy-99" style="edgeStyle=orthogonalEdgeStyle;rounded=0;orthogonalLoop=1;jettySize=auto;html=1;exitX=0.5;exitY=1;exitDx=0;exitDy=0;exitPerimeter=0;" parent="1" source="AcMXBGsKMKyD5ggL8cvy-100" target="AcMXBGsKMKyD5ggL8cvy-103" edge="1">
          <mxGeometry relative="1" as="geometry" />
        </mxCell>
        <mxCell id="AcMXBGsKMKyD5ggL8cvy-100" value="SQS" style="sketch=0;points=[[0,0,0],[0.25,0,0],[0.5,0,0],[0.75,0,0],[1,0,0],[0,1,0],[0.25,1,0],[0.5,1,0],[0.75,1,0],[1,1,0],[0,0.25,0],[0,0.5,0],[0,0.75,0],[1,0.25,0],[1,0.5,0],[1,0.75,0]];outlineConnect=0;fontColor=#232F3E;fillColor=#E7157B;strokeColor=#ffffff;dashed=0;verticalLabelPosition=bottom;verticalAlign=top;align=center;html=1;fontSize=12;fontStyle=0;aspect=fixed;shape=mxgraph.aws4.resourceIcon;resIcon=mxgraph.aws4.sqs;" parent="1" vertex="1">
          <mxGeometry x="950" y="610" width="78" height="78" as="geometry" />
        </mxCell>
        <mxCell id="AcMXBGsKMKyD5ggL8cvy-101" value="Queue" style="sketch=0;outlineConnect=0;fontColor=#232F3E;gradientColor=none;fillColor=#E7157B;strokeColor=none;dashed=0;verticalLabelPosition=bottom;verticalAlign=top;align=center;html=1;fontSize=12;fontStyle=0;aspect=fixed;pointerEvents=1;shape=mxgraph.aws4.queue;" parent="1" vertex="1">
          <mxGeometry x="800" y="850" width="78" height="47" as="geometry" />
        </mxCell>
        <mxCell id="AcMXBGsKMKyD5ggL8cvy-102" value="" style="edgeStyle=orthogonalEdgeStyle;rounded=0;orthogonalLoop=1;jettySize=auto;html=1;" parent="1" source="AcMXBGsKMKyD5ggL8cvy-94" target="AcMXBGsKMKyD5ggL8cvy-98" edge="1">
          <mxGeometry relative="1" as="geometry" />
        </mxCell>
        <mxCell id="AcMXBGsKMKyD5ggL8cvy-103" value="Queue" style="sketch=0;outlineConnect=0;fontColor=#232F3E;gradientColor=none;fillColor=#E7157B;strokeColor=none;dashed=0;verticalLabelPosition=bottom;verticalAlign=top;align=center;html=1;fontSize=12;fontStyle=0;aspect=fixed;pointerEvents=1;shape=mxgraph.aws4.queue;" parent="1" vertex="1">
          <mxGeometry x="950" y="850" width="78" height="47" as="geometry" />
        </mxCell>
        <mxCell id="AcMXBGsKMKyD5ggL8cvy-104" value="Email" style="verticalLabelPosition=bottom;shadow=0;dashed=0;align=center;html=1;verticalAlign=top;strokeWidth=1;shape=mxgraph.mockup.misc.mail2;strokeColor=#FFFFFF;fillColor=#FF66B3;" parent="1" vertex="1">
          <mxGeometry x="920" y="1074" width="76.66" height="46" as="geometry" />
        </mxCell>
        <mxCell id="9bkTHW58yHg_swuE8ucZ-2" value="Start Transcoding" style="sketch=0;points=[[0,0,0],[0.25,0,0],[0.5,0,0],[0.75,0,0],[1,0,0],[0,1,0],[0.25,1,0],[0.5,1,0],[0.75,1,0],[1,1,0],[0,0.25,0],[0,0.5,0],[0,0.75,0],[1,0.25,0],[1,0.5,0],[1,0.75,0]];outlineConnect=0;fontColor=#232F3E;fillColor=#ED7100;strokeColor=#ffffff;dashed=0;verticalLabelPosition=bottom;verticalAlign=top;align=center;html=1;fontSize=12;fontStyle=0;aspect=fixed;shape=mxgraph.aws4.resourceIcon;resIcon=mxgraph.aws4.lambda;" vertex="1" parent="1">
          <mxGeometry x="-423" y="-110" width="70" height="70" as="geometry" />
        </mxCell>
        <mxCell id="9bkTHW58yHg_swuE8ucZ-3" style="edgeStyle=orthogonalEdgeStyle;rounded=0;orthogonalLoop=1;jettySize=auto;html=1;entryX=0;entryY=0.5;entryDx=0;entryDy=0;entryPerimeter=0;startArrow=classic;startFill=1;" edge="1" parent="1" source="AcMXBGsKMKyD5ggL8cvy-15" target="AcMXBGsKMKyD5ggL8cvy-6">
          <mxGeometry relative="1" as="geometry">
            <Array as="points">
              <mxPoint x="-500" y="-421" />
            </Array>
          </mxGeometry>
        </mxCell>
        <mxCell id="9bkTHW58yHg_swuE8ucZ-4" style="edgeStyle=orthogonalEdgeStyle;rounded=0;orthogonalLoop=1;jettySize=auto;html=1;entryX=0;entryY=0.5;entryDx=0;entryDy=0;entryPerimeter=0;exitX=1;exitY=0.5;exitDx=0;exitDy=0;exitPerimeter=0;startArrow=classic;startFill=1;" edge="1" parent="1" source="9bkTHW58yHg_swuE8ucZ-2" target="AcMXBGsKMKyD5ggL8cvy-64">
          <mxGeometry relative="1" as="geometry">
            <Array as="points">
              <mxPoint x="-150" y="-75" />
              <mxPoint x="-150" y="-75" />
            </Array>
          </mxGeometry>
        </mxCell>
        <mxCell id="9bkTHW58yHg_swuE8ucZ-32" style="edgeStyle=orthogonalEdgeStyle;rounded=0;orthogonalLoop=1;jettySize=auto;html=1;" edge="1" parent="1" source="9bkTHW58yHg_swuE8ucZ-5" target="9bkTHW58yHg_swuE8ucZ-31">
          <mxGeometry relative="1" as="geometry" />
        </mxCell>
        <mxCell id="9bkTHW58yHg_swuE8ucZ-5" value="SQS" style="sketch=0;points=[[0,0,0],[0.25,0,0],[0.5,0,0],[0.75,0,0],[1,0,0],[0,1,0],[0.25,1,0],[0.5,1,0],[0.75,1,0],[1,1,0],[0,0.25,0],[0,0.5,0],[0,0.75,0],[1,0.25,0],[1,0.5,0],[1,0.75,0]];outlineConnect=0;fontColor=#232F3E;fillColor=#E7157B;strokeColor=#ffffff;dashed=0;verticalLabelPosition=bottom;verticalAlign=top;align=center;html=1;fontSize=12;fontStyle=0;aspect=fixed;shape=mxgraph.aws4.resourceIcon;resIcon=mxgraph.aws4.sqs;" vertex="1" parent="1">
          <mxGeometry x="110" y="532" width="78" height="78" as="geometry" />
        </mxCell>
        <mxCell id="9bkTHW58yHg_swuE8ucZ-6" style="edgeStyle=orthogonalEdgeStyle;rounded=0;orthogonalLoop=1;jettySize=auto;html=1;entryX=0.5;entryY=0;entryDx=0;entryDy=0;entryPerimeter=0;startArrow=classic;startFill=1;" edge="1" parent="1" source="AcMXBGsKMKyD5ggL8cvy-3" target="9bkTHW58yHg_swuE8ucZ-5">
          <mxGeometry relative="1" as="geometry" />
        </mxCell>
        <mxCell id="9bkTHW58yHg_swuE8ucZ-7" style="edgeStyle=orthogonalEdgeStyle;rounded=0;orthogonalLoop=1;jettySize=auto;html=1;entryX=1;entryY=0.25;entryDx=0;entryDy=0;entryPerimeter=0;startArrow=classic;startFill=1;" edge="1" parent="1" source="AcMXBGsKMKyD5ggL8cvy-5" target="AcMXBGsKMKyD5ggL8cvy-12">
          <mxGeometry relative="1" as="geometry">
            <Array as="points">
              <mxPoint x="-388" y="-10" />
              <mxPoint x="340" y="-10" />
              <mxPoint x="340" y="720" />
            </Array>
          </mxGeometry>
        </mxCell>
        <mxCell id="9bkTHW58yHg_swuE8ucZ-9" style="edgeStyle=orthogonalEdgeStyle;rounded=0;orthogonalLoop=1;jettySize=auto;html=1;entryX=0;entryY=0.5;entryDx=0;entryDy=0;entryPerimeter=0;exitX=1;exitY=0.25;exitDx=0;exitDy=0;exitPerimeter=0;startArrow=classic;startFill=1;" edge="1" parent="1" source="AcMXBGsKMKyD5ggL8cvy-39" target="AcMXBGsKMKyD5ggL8cvy-9">
          <mxGeometry relative="1" as="geometry">
            <Array as="points">
              <mxPoint x="-200" y="158" />
              <mxPoint x="-200" y="83" />
            </Array>
          </mxGeometry>
        </mxCell>
        <mxCell id="9bkTHW58yHg_swuE8ucZ-11" style="edgeStyle=orthogonalEdgeStyle;rounded=0;orthogonalLoop=1;jettySize=auto;html=1;entryX=0.25;entryY=0;entryDx=0;entryDy=0;entryPerimeter=0;startArrow=classic;startFill=1;" edge="1" parent="1" source="AcMXBGsKMKyD5ggL8cvy-39" target="9bkTHW58yHg_swuE8ucZ-5">
          <mxGeometry relative="1" as="geometry">
            <Array as="points">
              <mxPoint x="130" y="175" />
            </Array>
          </mxGeometry>
        </mxCell>
        <mxCell id="9bkTHW58yHg_swuE8ucZ-12" style="edgeStyle=orthogonalEdgeStyle;rounded=0;orthogonalLoop=1;jettySize=auto;html=1;startArrow=classic;startFill=1;" edge="1" parent="1" source="AcMXBGsKMKyD5ggL8cvy-6" target="9bkTHW58yHg_swuE8ucZ-5">
          <mxGeometry relative="1" as="geometry">
            <mxPoint x="180" y="490" as="targetPoint" />
            <Array as="points">
              <mxPoint x="250" y="-410" />
              <mxPoint x="250" y="420" />
              <mxPoint x="180" y="420" />
            </Array>
          </mxGeometry>
        </mxCell>
        <mxCell id="9bkTHW58yHg_swuE8ucZ-13" value="Get Series" style="sketch=0;points=[[0,0,0],[0.25,0,0],[0.5,0,0],[0.75,0,0],[1,0,0],[0,1,0],[0.25,1,0],[0.5,1,0],[0.75,1,0],[1,1,0],[0,0.25,0],[0,0.5,0],[0,0.75,0],[1,0.25,0],[1,0.5,0],[1,0.75,0]];outlineConnect=0;fontColor=#232F3E;fillColor=#ED7100;strokeColor=#ffffff;dashed=0;verticalLabelPosition=bottom;verticalAlign=top;align=center;html=1;fontSize=12;fontStyle=0;aspect=fixed;shape=mxgraph.aws4.resourceIcon;resIcon=mxgraph.aws4.lambda;" vertex="1" parent="1">
          <mxGeometry x="-380" y="700" width="70" height="70" as="geometry" />
        </mxCell>
        <mxCell id="9bkTHW58yHg_swuE8ucZ-14" style="edgeStyle=orthogonalEdgeStyle;rounded=0;orthogonalLoop=1;jettySize=auto;html=1;entryX=0;entryY=0.5;entryDx=0;entryDy=0;entryPerimeter=0;" edge="1" parent="1" source="AcMXBGsKMKyD5ggL8cvy-15" target="9bkTHW58yHg_swuE8ucZ-13">
          <mxGeometry relative="1" as="geometry" />
        </mxCell>
        <mxCell id="9bkTHW58yHg_swuE8ucZ-15" style="edgeStyle=orthogonalEdgeStyle;rounded=0;orthogonalLoop=1;jettySize=auto;html=1;entryX=0;entryY=0.25;entryDx=0;entryDy=0;entryPerimeter=0;startArrow=classic;startFill=1;" edge="1" parent="1" source="9bkTHW58yHg_swuE8ucZ-13" target="AcMXBGsKMKyD5ggL8cvy-12">
          <mxGeometry relative="1" as="geometry">
            <Array as="points">
              <mxPoint x="-185" y="720" />
            </Array>
          </mxGeometry>
        </mxCell>
        <mxCell id="9bkTHW58yHg_swuE8ucZ-16" value="Download Specific Resolution movie" style="sketch=0;points=[[0,0,0],[0.25,0,0],[0.5,0,0],[0.75,0,0],[1,0,0],[0,1,0],[0.25,1,0],[0.5,1,0],[0.75,1,0],[1,1,0],[0,0.25,0],[0,0.5,0],[0,0.75,0],[1,0.25,0],[1,0.5,0],[1,0.75,0]];outlineConnect=0;fontColor=#232F3E;fillColor=#ED7100;strokeColor=#ffffff;dashed=0;verticalLabelPosition=bottom;verticalAlign=top;align=center;html=1;fontSize=12;fontStyle=0;aspect=fixed;shape=mxgraph.aws4.resourceIcon;resIcon=mxgraph.aws4.lambda;" vertex="1" parent="1">
          <mxGeometry x="-380" y="560" width="70" height="70" as="geometry" />
        </mxCell>
        <mxCell id="9bkTHW58yHg_swuE8ucZ-17" style="edgeStyle=orthogonalEdgeStyle;rounded=0;orthogonalLoop=1;jettySize=auto;html=1;entryX=0;entryY=0.5;entryDx=0;entryDy=0;entryPerimeter=0;" edge="1" parent="1" source="AcMXBGsKMKyD5ggL8cvy-15" target="9bkTHW58yHg_swuE8ucZ-16">
          <mxGeometry relative="1" as="geometry">
            <Array as="points">
              <mxPoint x="-417" y="670" />
              <mxPoint x="-417" y="595" />
            </Array>
          </mxGeometry>
        </mxCell>
        <mxCell id="9bkTHW58yHg_swuE8ucZ-18" style="edgeStyle=orthogonalEdgeStyle;rounded=0;orthogonalLoop=1;jettySize=auto;html=1;entryX=0.25;entryY=0;entryDx=0;entryDy=0;entryPerimeter=0;" edge="1" parent="1" source="9bkTHW58yHg_swuE8ucZ-16" target="AcMXBGsKMKyD5ggL8cvy-12">
          <mxGeometry relative="1" as="geometry" />
        </mxCell>
        <mxCell id="9bkTHW58yHg_swuE8ucZ-19" style="edgeStyle=orthogonalEdgeStyle;rounded=0;orthogonalLoop=1;jettySize=auto;html=1;entryX=0;entryY=0.75;entryDx=0;entryDy=0;entryPerimeter=0;" edge="1" parent="1" source="9bkTHW58yHg_swuE8ucZ-16" target="AcMXBGsKMKyD5ggL8cvy-9">
          <mxGeometry relative="1" as="geometry">
            <Array as="points">
              <mxPoint x="-40" y="580" />
              <mxPoint x="-40" y="101" />
            </Array>
          </mxGeometry>
        </mxCell>
        <mxCell id="9bkTHW58yHg_swuE8ucZ-20" style="edgeStyle=orthogonalEdgeStyle;rounded=0;orthogonalLoop=1;jettySize=auto;html=1;entryX=0.25;entryY=1;entryDx=0;entryDy=0;entryPerimeter=0;startArrow=classic;startFill=1;" edge="1" parent="1" source="AcMXBGsKMKyD5ggL8cvy-18" target="9bkTHW58yHg_swuE8ucZ-5">
          <mxGeometry relative="1" as="geometry">
            <Array as="points">
              <mxPoint x="-345" y="1000" />
              <mxPoint x="130" y="1000" />
            </Array>
          </mxGeometry>
        </mxCell>
        <mxCell id="9bkTHW58yHg_swuE8ucZ-22" value="Get Subscriptions" style="sketch=0;points=[[0,0,0],[0.25,0,0],[0.5,0,0],[0.75,0,0],[1,0,0],[0,1,0],[0.25,1,0],[0.5,1,0],[0.75,1,0],[1,1,0],[0,0.25,0],[0,0.5,0],[0,0.75,0],[1,0.25,0],[1,0.5,0],[1,0.75,0]];outlineConnect=0;fontColor=#232F3E;fillColor=#ED7100;strokeColor=#ffffff;dashed=0;verticalLabelPosition=bottom;verticalAlign=top;align=center;html=1;fontSize=12;fontStyle=0;aspect=fixed;shape=mxgraph.aws4.resourceIcon;resIcon=mxgraph.aws4.lambda;" vertex="1" parent="1">
          <mxGeometry x="-380" y="1240" width="70" height="70" as="geometry" />
        </mxCell>
        <mxCell id="9bkTHW58yHg_swuE8ucZ-23" style="edgeStyle=orthogonalEdgeStyle;rounded=0;orthogonalLoop=1;jettySize=auto;html=1;entryX=0.75;entryY=1;entryDx=0;entryDy=0;entryPerimeter=0;startArrow=classic;startFill=1;" edge="1" parent="1" source="9bkTHW58yHg_swuE8ucZ-22" target="AcMXBGsKMKyD5ggL8cvy-15">
          <mxGeometry relative="1" as="geometry" />
        </mxCell>
        <mxCell id="9bkTHW58yHg_swuE8ucZ-24" style="edgeStyle=orthogonalEdgeStyle;rounded=0;orthogonalLoop=1;jettySize=auto;html=1;entryX=0.5;entryY=1;entryDx=0;entryDy=0;entryPerimeter=0;startArrow=classic;startFill=1;" edge="1" parent="1" source="9bkTHW58yHg_swuE8ucZ-22" target="AcMXBGsKMKyD5ggL8cvy-25">
          <mxGeometry relative="1" as="geometry" />
        </mxCell>
        <mxCell id="9bkTHW58yHg_swuE8ucZ-26" style="edgeStyle=orthogonalEdgeStyle;rounded=0;orthogonalLoop=1;jettySize=auto;html=1;entryX=0.75;entryY=1;entryDx=0;entryDy=0;entryPerimeter=0;startArrow=classic;startFill=1;" edge="1" parent="1" source="AcMXBGsKMKyD5ggL8cvy-21" target="9bkTHW58yHg_swuE8ucZ-5">
          <mxGeometry relative="1" as="geometry">
            <Array as="points">
              <mxPoint x="-337" y="1370" />
              <mxPoint x="169" y="1370" />
            </Array>
          </mxGeometry>
        </mxCell>
        <mxCell id="9bkTHW58yHg_swuE8ucZ-27" value="Get Review" style="sketch=0;points=[[0,0,0],[0.25,0,0],[0.5,0,0],[0.75,0,0],[1,0,0],[0,1,0],[0.25,1,0],[0.5,1,0],[0.75,1,0],[1,1,0],[0,0.25,0],[0,0.5,0],[0,0.75,0],[1,0.25,0],[1,0.5,0],[1,0.75,0]];outlineConnect=0;fontColor=#232F3E;fillColor=#ED7100;strokeColor=#ffffff;dashed=0;verticalLabelPosition=bottom;verticalAlign=top;align=center;html=1;fontSize=12;fontStyle=0;aspect=fixed;shape=mxgraph.aws4.resourceIcon;resIcon=mxgraph.aws4.lambda;" vertex="1" parent="1">
          <mxGeometry x="-372" y="1480" width="70" height="70" as="geometry" />
        </mxCell>
        <mxCell id="9bkTHW58yHg_swuE8ucZ-29" style="edgeStyle=orthogonalEdgeStyle;rounded=0;orthogonalLoop=1;jettySize=auto;html=1;entryX=0;entryY=0.5;entryDx=0;entryDy=0;entryPerimeter=0;startArrow=classic;startFill=1;" edge="1" parent="1" source="AcMXBGsKMKyD5ggL8cvy-15" target="AcMXBGsKMKyD5ggL8cvy-21">
          <mxGeometry relative="1" as="geometry">
            <Array as="points">
              <mxPoint x="-440" y="710" />
              <mxPoint x="-440" y="1425" />
            </Array>
          </mxGeometry>
        </mxCell>
        <mxCell id="9bkTHW58yHg_swuE8ucZ-30" style="edgeStyle=orthogonalEdgeStyle;rounded=0;orthogonalLoop=1;jettySize=auto;html=1;entryX=0;entryY=0.5;entryDx=0;entryDy=0;entryPerimeter=0;startArrow=classic;startFill=1;" edge="1" parent="1" source="9bkTHW58yHg_swuE8ucZ-27" target="AcMXBGsKMKyD5ggL8cvy-27">
          <mxGeometry relative="1" as="geometry" />
        </mxCell>
        <mxCell id="9bkTHW58yHg_swuE8ucZ-31" value="Queue" style="sketch=0;outlineConnect=0;fontColor=#232F3E;gradientColor=none;fillColor=#E7157B;strokeColor=none;dashed=0;verticalLabelPosition=bottom;verticalAlign=top;align=center;html=1;fontSize=12;fontStyle=0;aspect=fixed;pointerEvents=1;shape=mxgraph.aws4.queue;" vertex="1" parent="1">
          <mxGeometry x="240" y="823" width="78" height="47" as="geometry" />
        </mxCell>
        <mxCell id="9bkTHW58yHg_swuE8ucZ-33" value="Feed Update" style="sketch=0;points=[[0,0,0],[0.25,0,0],[0.5,0,0],[0.75,0,0],[1,0,0],[0,1,0],[0.25,1,0],[0.5,1,0],[0.75,1,0],[1,1,0],[0,0.25,0],[0,0.5,0],[0,0.75,0],[1,0.25,0],[1,0.5,0],[1,0.75,0]];outlineConnect=0;fontColor=#232F3E;fillColor=#ED7100;strokeColor=#ffffff;dashed=0;verticalLabelPosition=bottom;verticalAlign=top;align=center;html=1;fontSize=12;fontStyle=0;aspect=fixed;shape=mxgraph.aws4.resourceIcon;resIcon=mxgraph.aws4.lambda;" vertex="1" parent="1">
          <mxGeometry x="244" y="930" width="70" height="70" as="geometry" />
        </mxCell>
        <mxCell id="9bkTHW58yHg_swuE8ucZ-34" style="edgeStyle=orthogonalEdgeStyle;rounded=0;orthogonalLoop=1;jettySize=auto;html=1;entryX=0.5;entryY=0;entryDx=0;entryDy=0;entryPerimeter=0;" edge="1" parent="1" source="9bkTHW58yHg_swuE8ucZ-31" target="9bkTHW58yHg_swuE8ucZ-33">
          <mxGeometry relative="1" as="geometry" />
        </mxCell>
        <mxCell id="9bkTHW58yHg_swuE8ucZ-35" value="Feed DB" style="sketch=0;points=[[0,0,0],[0.25,0,0],[0.5,0,0],[0.75,0,0],[1,0,0],[0,1,0],[0.25,1,0],[0.5,1,0],[0.75,1,0],[1,1,0],[0,0.25,0],[0,0.5,0],[0,0.75,0],[1,0.25,0],[1,0.5,0],[1,0.75,0]];outlineConnect=0;fillColor=#b1ddf0;strokeColor=#10739e;dashed=0;verticalLabelPosition=bottom;verticalAlign=top;align=center;html=1;fontSize=12;fontStyle=0;aspect=fixed;shape=mxgraph.aws4.resourceIcon;resIcon=mxgraph.aws4.dynamodb;" vertex="1" parent="1">
          <mxGeometry x="-56" y="1716" width="78" height="78" as="geometry" />
        </mxCell>
        <mxCell id="9bkTHW58yHg_swuE8ucZ-36" style="edgeStyle=orthogonalEdgeStyle;rounded=0;orthogonalLoop=1;jettySize=auto;html=1;entryX=0;entryY=0.5;entryDx=0;entryDy=0;entryPerimeter=0;startArrow=classic;startFill=1;" edge="1" parent="1" source="AcMXBGsKMKyD5ggL8cvy-22" target="9bkTHW58yHg_swuE8ucZ-35">
          <mxGeometry relative="1" as="geometry" />
        </mxCell>
        <mxCell id="9bkTHW58yHg_swuE8ucZ-37" style="edgeStyle=orthogonalEdgeStyle;rounded=0;orthogonalLoop=1;jettySize=auto;html=1;entryX=1;entryY=0.75;entryDx=0;entryDy=0;entryPerimeter=0;exitX=0.75;exitY=1;exitDx=0;exitDy=0;exitPerimeter=0;startArrow=classic;startFill=1;" edge="1" parent="1" source="9bkTHW58yHg_swuE8ucZ-33" target="9bkTHW58yHg_swuE8ucZ-35">
          <mxGeometry relative="1" as="geometry" />
        </mxCell>
        <mxCell id="9bkTHW58yHg_swuE8ucZ-38" style="edgeStyle=orthogonalEdgeStyle;rounded=0;orthogonalLoop=1;jettySize=auto;html=1;entryX=1;entryY=0.25;entryDx=0;entryDy=0;entryPerimeter=0;exitX=0.5;exitY=1;exitDx=0;exitDy=0;exitPerimeter=0;startArrow=classic;startFill=1;" edge="1" parent="1" source="9bkTHW58yHg_swuE8ucZ-33" target="AcMXBGsKMKyD5ggL8cvy-27">
          <mxGeometry relative="1" as="geometry" />
        </mxCell>
        <mxCell id="9bkTHW58yHg_swuE8ucZ-39" style="edgeStyle=orthogonalEdgeStyle;rounded=0;orthogonalLoop=1;jettySize=auto;html=1;entryX=1;entryY=0.25;entryDx=0;entryDy=0;entryPerimeter=0;exitX=0.25;exitY=1;exitDx=0;exitDy=0;exitPerimeter=0;startArrow=classic;startFill=1;" edge="1" parent="1" source="9bkTHW58yHg_swuE8ucZ-33" target="AcMXBGsKMKyD5ggL8cvy-25">
          <mxGeometry relative="1" as="geometry" />
        </mxCell>
        <mxCell id="9bkTHW58yHg_swuE8ucZ-40" style="edgeStyle=orthogonalEdgeStyle;rounded=0;orthogonalLoop=1;jettySize=auto;html=1;entryX=0.5;entryY=1;entryDx=0;entryDy=0;entryPerimeter=0;startArrow=classic;startFill=1;" edge="1" parent="1" source="9bkTHW58yHg_swuE8ucZ-33" target="AcMXBGsKMKyD5ggL8cvy-12">
          <mxGeometry relative="1" as="geometry" />
        </mxCell>
        <mxCell id="9bkTHW58yHg_swuE8ucZ-41" style="edgeStyle=orthogonalEdgeStyle;rounded=0;orthogonalLoop=1;jettySize=auto;html=1;entryX=1;entryY=0.5;entryDx=0;entryDy=0;entryPerimeter=0;startArrow=classic;startFill=1;" edge="1" parent="1" source="9bkTHW58yHg_swuE8ucZ-33" target="AcMXBGsKMKyD5ggL8cvy-26">
          <mxGeometry relative="1" as="geometry">
            <Array as="points">
              <mxPoint x="390" y="965" />
              <mxPoint x="390" y="-175" />
            </Array>
          </mxGeometry>
        </mxCell>
        <mxCell id="9bkTHW58yHg_swuE8ucZ-43" style="edgeStyle=orthogonalEdgeStyle;rounded=0;orthogonalLoop=1;jettySize=auto;html=1;exitX=0;exitY=0.5;exitDx=0;exitDy=0;exitPerimeter=0;startArrow=classic;startFill=1;" edge="1" parent="1" source="9bkTHW58yHg_swuE8ucZ-42">
          <mxGeometry relative="1" as="geometry">
            <mxPoint x="-520" y="650" as="targetPoint" />
            <mxPoint x="-425" y="-168.99999999999977" as="sourcePoint" />
          </mxGeometry>
        </mxCell>
        <mxCell id="9bkTHW58yHg_swuE8ucZ-42" value="Create Download History" style="sketch=0;points=[[0,0,0],[0.25,0,0],[0.5,0,0],[0.75,0,0],[1,0,0],[0,1,0],[0.25,1,0],[0.5,1,0],[0.75,1,0],[1,1,0],[0,0.25,0],[0,0.5,0],[0,0.75,0],[1,0.25,0],[1,0.5,0],[1,0.75,0]];outlineConnect=0;fontColor=#232F3E;fillColor=#ED7100;strokeColor=#ffffff;dashed=0;verticalLabelPosition=bottom;verticalAlign=top;align=center;html=1;fontSize=12;fontStyle=0;aspect=fixed;shape=mxgraph.aws4.resourceIcon;resIcon=mxgraph.aws4.lambda;" vertex="1" parent="1">
          <mxGeometry x="-425" y="-214" width="70" height="70" as="geometry" />
        </mxCell>
        <mxCell id="9bkTHW58yHg_swuE8ucZ-44" style="edgeStyle=orthogonalEdgeStyle;rounded=0;orthogonalLoop=1;jettySize=auto;html=1;entryX=0;entryY=0.5;entryDx=0;entryDy=0;entryPerimeter=0;startArrow=classic;startFill=1;exitX=1;exitY=0.5;exitDx=0;exitDy=0;exitPerimeter=0;" edge="1" parent="1" source="9bkTHW58yHg_swuE8ucZ-42" target="AcMXBGsKMKyD5ggL8cvy-26">
          <mxGeometry relative="1" as="geometry">
            <mxPoint x="-350" y="-175" as="sourcePoint" />
          </mxGeometry>
        </mxCell>
        <mxCell id="9bkTHW58yHg_swuE8ucZ-45" style="edgeStyle=orthogonalEdgeStyle;rounded=0;orthogonalLoop=1;jettySize=auto;html=1;entryX=0;entryY=0;entryDx=0;entryDy=0;entryPerimeter=0;startArrow=classic;startFill=1;" edge="1" parent="1" source="9bkTHW58yHg_swuE8ucZ-42" target="9bkTHW58yHg_swuE8ucZ-5">
          <mxGeometry relative="1" as="geometry">
            <Array as="points">
              <mxPoint x="-390" y="-250" />
              <mxPoint x="110" y="-250" />
            </Array>
          </mxGeometry>
        </mxCell>
        <mxCell id="9bkTHW58yHg_swuE8ucZ-46" style="edgeStyle=orthogonalEdgeStyle;rounded=0;orthogonalLoop=1;jettySize=auto;html=1;entryX=1;entryY=0.5;entryDx=0;entryDy=0;entryPerimeter=0;startArrow=classic;startFill=1;" edge="1" parent="1" source="AcMXBGsKMKyD5ggL8cvy-6" target="9bkTHW58yHg_swuE8ucZ-35">
          <mxGeometry relative="1" as="geometry">
            <Array as="points">
              <mxPoint x="530" y="-421" />
              <mxPoint x="530" y="1755" />
            </Array>
          </mxGeometry>
        </mxCell>
      </root>
    </mxGraphModel>
  </diagram>
</mxfile>
